# xmcd
#
# Track frame offsets:
#	150
#	24957
#	47423
#	67628
#	87210
#	111055
#	132401
#	150855
#	170002
#	184985
#
# Disc length: 2736 seconds
# Revision: 0
# Processed by: cddbd v1.5.2PL0 Copyright (c) Steve Scherf et al.
# Submitted via: dBpowerAMP V12.0
#
DISCID=6f0aae0a
DTITLE=Rory Block - Hard Luck Child: A Tribute To Skip James
DYEAR=2014
DGENRE=Blues Country
TTITLE0=Nehemiah James
TTITLE1=Special Rider Blues
TTITLE2=Cypress Grove Blues
TTITLE3=If You Haven't Any Hay, Get On Down The Road
TTITLE4=Little Cow And Calf Is Gonna Die Blues
TTITLE5=Devil Got My Woman
TTITLE6=Jesus Is A Mighty Good Leader
TTITLE7=Hard Time Killing Floor Blues
TTITLE8=I'm So Glad
TTITLE9=Hard Luck Child
EXTD=
EXTT0=
EXTT1=
EXTT2=
EXTT3=
EXTT4=
EXTT5=
EXTT6=
EXTT7=
EXTT8=
EXTT9=
PLAYORDER=
